<svg width="223" height="162" viewBox="0 0 223 162" fill="none" xmlns="http://www.w3.org/2000/svg">
<path d="M15.4765 31.8534H15.4034L10.2689 37.946V52.7716H0V0.66626H10.2689V23.6324H10.3421L28.3932 0.66626H41.4561L22.2347 23.6324L42.0485 52.7643H29.3513L15.4838 31.8534H15.4765Z" fill="#F6ECFF"/>
<path d="M46.7807 52.7643V0.66626H57.1301V52.7643H46.7807Z" fill="#F6ECFF"/>
<path d="M82.2027 53.3496C74.8155 53.3496 68.4815 50.6141 63.2007 45.1286L69.3665 37.5C71.2243 39.6504 73.3015 41.2814 75.6054 42.3785C77.902 43.4829 80.1547 44.0315 82.3563 44.0315C84.7991 44.0315 86.6569 43.5341 87.9296 42.5248C89.2022 41.5228 89.8385 40.1916 89.8385 38.524C89.8385 36.7174 89.1803 35.3351 87.8564 34.3769C86.5326 33.4261 84.1628 32.3582 80.7398 31.188C78.392 30.3542 76.4319 29.5643 74.8667 28.8036C73.3015 28.043 71.685 27.0336 70.0248 25.761C68.3645 24.4883 67.1138 22.9451 66.28 21.1385C65.4462 19.3319 65.0293 17.2474 65.0293 14.8996C65.0293 10.7452 66.6457 7.24179 69.8712 4.40393C73.0967 1.56608 77.0609 0.103269 81.7565 0.000872699C88.1124 -0.0503257 93.9637 2.15121 99.2956 6.60546L93.3493 14.3803C89.2388 10.9573 85.4501 9.24583 81.9759 9.24583C80.1181 9.24583 78.6115 9.71394 77.4631 10.6428C76.3148 11.5717 75.737 12.8444 75.737 14.4608C75.6858 15.9748 76.3002 17.1889 77.5729 18.0958C78.8455 19.0028 81.1421 20.1145 84.47 21.431C89.8532 23.5375 93.3712 25.1466 95.0388 26.273C98.7544 28.8182 100.612 32.5118 100.612 37.3537C100.612 42.5906 98.7544 46.5621 95.0388 49.2757C91.3233 51.9892 87.0372 53.3496 82.1953 53.3496H82.2027Z" fill="#F6ECFF"/>
<path d="M122.605 53.3496C115.218 53.3496 108.884 50.6141 103.604 45.1286L109.769 37.5C111.627 39.6504 113.704 41.2814 116.008 42.3785C118.305 43.4829 120.558 44.0315 122.759 44.0315C125.202 44.0315 127.06 43.5341 128.34 42.5248C129.612 41.5228 130.249 40.1916 130.249 38.524C130.249 36.7174 129.59 35.3351 128.267 34.3769C126.943 33.4261 124.573 32.3582 121.15 31.188C118.802 30.3542 116.842 29.5643 115.277 28.8036C113.712 28.043 112.095 27.0336 110.435 25.761C108.775 24.4883 107.524 22.9451 106.69 21.1385C105.856 19.3319 105.439 17.2474 105.439 14.8996C105.439 10.7452 107.056 7.24179 110.281 4.40393C113.507 1.56608 117.471 0.103269 122.167 0.000872699C128.523 -0.0503257 134.374 2.15121 139.706 6.60546L133.759 14.3803C129.649 10.9573 125.86 9.24583 122.386 9.24583C120.528 9.24583 119.022 9.71394 117.873 10.6428C116.725 11.5717 116.147 12.8444 116.147 14.4608C116.096 15.9748 116.71 17.1889 117.983 18.0958C119.256 19.0028 121.552 20.1145 124.88 21.431C130.263 23.5375 133.781 25.1466 135.449 26.273C139.164 28.8182 141.03 32.5118 141.03 37.3537C141.03 42.5906 139.172 46.5621 135.449 49.2757C131.733 51.9892 127.455 53.3496 122.605 53.3496Z" fill="#F6ECFF"/>
<path d="M166.973 52.7643V0.66626H177.322V52.7643H166.973Z" fill="#F6ECFF"/>
<path d="M197.472 52.7643V9.91122H183.093V0.66626H222.201V9.91122H207.748V52.7643H197.472Z" fill="#F6ECFF"/>
<path d="M77.1121 68.6653C83.9214 68.6653 89.0486 70.428 92.3619 73.8948C95.6897 77.3836 97.372 82.1158 97.372 87.9671C97.372 94.1694 95.485 98.9016 91.7621 102.032C87.9734 105.221 82.6634 106.83 75.9784 106.83H66.3165C65.6363 106.83 65.0804 107.386 65.0804 108.066V127.975H55.4551V68.658H77.1047M66.3165 98.4261H74.4132C78.4725 98.4261 81.6321 97.4753 83.7898 95.6029C86.0059 93.6866 87.1323 91.0316 87.1323 87.7111C87.1323 84.3905 86.0279 81.8306 83.841 79.907C81.7053 78.0273 78.7065 77.0764 74.9325 77.0764H66.3165C65.6363 77.0764 65.0804 77.6323 65.0804 78.3125V97.1974C65.0804 97.8776 65.6363 98.4335 66.3165 98.4335M77.1121 67.4292H54.2264V129.218H66.3238V108.073H75.9857C83.0072 108.073 88.5293 106.377 92.5666 102.983C96.5967 99.5891 98.6154 94.5863 98.6154 87.9671C98.6154 81.7574 96.8307 76.7839 93.2615 73.0464C89.6922 69.3016 84.3164 67.4365 77.1194 67.4365L77.1121 67.4292ZM66.3165 97.1974V78.3125H74.9325C78.414 78.3125 81.1128 79.1536 83.0291 80.8358C84.9454 82.5181 85.8962 84.8074 85.8962 87.7111C85.8962 90.6147 84.9235 92.9918 82.9779 94.674C81.0324 96.3563 78.1799 97.1974 74.4059 97.1974H66.3092H66.3165Z" fill="black"/>
<path d="M185.572 68.6653L167.828 127.982H158.386L147.056 84.9537C146.932 84.4856 146.552 84.1345 146.076 84.054L145.367 83.9297C145.294 83.9151 145.221 83.9078 145.155 83.9078C144.606 83.9078 144.116 84.2735 143.963 84.8147L132.165 127.975H122.123L104.525 68.658H114.992L126.745 109.536C126.899 110.063 127.382 110.429 127.93 110.429H128.106C128.669 110.429 129.159 110.048 129.298 109.507L140.02 68.658H151.094L161.794 109.273C161.838 109.734 162.145 110.158 162.599 110.333C162.738 110.385 162.877 110.414 163.016 110.414C163.323 110.414 163.623 110.297 163.864 110.085C164.069 109.902 164.2 109.653 164.252 109.383L176.115 68.6653H185.579M187.232 67.4292H175.186L163.038 109.134L163.052 109.185H163.03L163.045 109.134L152.059 67.4292H139.084L128.12 109.2H127.945L115.935 67.4292H102.887L121.216 129.218H133.123L145.169 85.1511L145.879 85.2755L157.457 129.218H168.772L187.254 67.4292H187.232Z" fill="black"/>
<path d="M216.416 87.2937V97.2042C215.896 97.1896 215.318 97.1823 214.689 97.1823C210.93 97.1823 207.931 98.3525 205.781 100.664C203.66 102.953 202.577 105.915 202.577 109.47V127.989H193.647V87.9885H202.577V93.0206C202.577 93.7008 203.133 94.2567 203.813 94.2567H203.901C204.303 94.2567 204.676 94.0665 204.903 93.7374C207.917 89.5098 211.683 87.4034 216.416 87.301M216.781 86.0576C211.501 86.0576 207.207 88.3762 203.901 93.0206H203.813V86.7524H192.411V129.218H203.813V109.463C203.813 106.215 204.772 103.56 206.688 101.498C208.604 99.4423 211.266 98.411 214.697 98.411C215.918 98.411 216.898 98.4403 217.659 98.4988V86.1381C217.542 86.0795 217.249 86.0503 216.789 86.0503L216.781 86.0576Z" fill="black"/>
<path d="M58.7684 126.746V64.9573H81.6541C88.8438 64.9573 94.2269 66.8297 97.7962 70.5672C101.365 74.3119 103.15 79.2855 103.15 85.4951C103.15 92.107 101.131 97.1172 97.1013 100.511C93.064 103.905 87.5419 105.601 80.5204 105.601H70.8585V126.746H58.7611H58.7684ZM70.8658 94.7255H78.9625C82.7292 94.7255 85.589 93.8844 87.5346 92.2021C89.4801 90.5199 90.4529 88.2013 90.4529 85.2391C90.4529 82.277 89.4947 80.0462 87.5858 78.3639C85.6695 76.6817 82.9706 75.8406 79.4891 75.8406H70.8731V94.7255H70.8658Z" fill="black"/>
<path d="M179.736 64.9644H191.782L173.299 126.753H161.984L150.406 82.8107L149.697 82.6863L137.65 126.753H125.743L107.414 64.9644H120.462L132.472 106.735H132.648L143.611 64.9644H156.587L167.587 106.72H167.565L179.728 64.9644H179.736Z" fill="black"/>
<path d="M221.331 83.5859C221.799 83.5859 222.084 83.6152 222.201 83.6737V96.0344C221.448 95.9759 220.46 95.9467 219.239 95.9467C215.816 95.9467 213.146 96.978 211.23 99.0332C209.314 101.096 208.355 103.751 208.355 106.998V126.753H196.953V84.2881H208.355V90.5562H208.443C211.749 85.9118 216.043 83.5932 221.323 83.5932L221.331 83.5859Z" fill="black"/>
<path d="M77.1121 68.6653C83.9214 68.6653 89.0486 70.428 92.3619 73.8948C95.6897 77.3836 97.372 82.1158 97.372 87.9671C97.372 94.1694 95.485 98.9016 91.7621 102.032C87.9734 105.221 82.6634 106.83 75.9784 106.83H66.3165C65.6363 106.83 65.0804 107.386 65.0804 108.066V127.975H55.4551V68.658H77.1047M66.3165 98.4261H74.4132C78.4725 98.4261 81.6321 97.4753 83.7898 95.6029C86.0059 93.6866 87.1323 91.0316 87.1323 87.7111C87.1323 84.3905 86.0279 81.8306 83.841 79.907C81.7053 78.0273 78.7065 77.0764 74.9325 77.0764H66.3165C65.6363 77.0764 65.0804 77.6323 65.0804 78.3125V97.1974C65.0804 97.8776 65.6363 98.4335 66.3165 98.4335M77.1121 67.4292H54.2264V129.218H66.3238V108.073H75.9857C83.0072 108.073 88.5293 106.377 92.5666 102.983C96.5967 99.5891 98.6154 94.5863 98.6154 87.9671C98.6154 81.7574 96.8307 76.7839 93.2615 73.0464C89.6922 69.3016 84.3164 67.4365 77.1194 67.4365L77.1121 67.4292ZM66.3165 97.1974V78.3125H74.9325C78.414 78.3125 81.1128 79.1536 83.0291 80.8358C84.9454 82.5181 85.8962 84.8074 85.8962 87.7111C85.8962 90.6147 84.9235 92.9918 82.9779 94.674C81.0324 96.3563 78.1799 97.1974 74.4059 97.1974H66.3092H66.3165Z" fill="#24FF54"/>
<path d="M185.572 68.6653L167.828 127.982H158.386L147.056 84.9537C146.932 84.4856 146.552 84.1345 146.076 84.054L145.367 83.9297C145.294 83.9151 145.221 83.9078 145.155 83.9078C144.606 83.9078 144.116 84.2735 143.963 84.8147L132.165 127.975H122.123L104.525 68.658H114.992L126.745 109.536C126.899 110.063 127.382 110.429 127.93 110.429H128.106C128.669 110.429 129.159 110.048 129.298 109.507L140.02 68.658H151.094L161.794 109.273C161.838 109.734 162.145 110.158 162.599 110.333C162.738 110.385 162.877 110.414 163.016 110.414C163.323 110.414 163.623 110.297 163.864 110.085C164.069 109.902 164.2 109.653 164.252 109.383L176.115 68.6653H185.579M187.232 67.4292H175.186L163.038 109.134L163.052 109.185H163.03L163.045 109.134L152.059 67.4292H139.084L128.12 109.2H127.945L115.935 67.4292H102.887L121.216 129.218H133.123L145.169 85.1511L145.879 85.2755L157.457 129.218H168.772L187.254 67.4292H187.232Z" fill="#24FF54"/>
<path d="M216.416 87.2937V97.2042C215.896 97.1896 215.318 97.1823 214.689 97.1823C210.93 97.1823 207.931 98.3525 205.781 100.664C203.66 102.953 202.577 105.915 202.577 109.47V127.989H193.647V87.9885H202.577V93.0206C202.577 93.7008 203.133 94.2567 203.813 94.2567H203.901C204.303 94.2567 204.676 94.0665 204.903 93.7374C207.917 89.5098 211.683 87.4034 216.416 87.301M216.781 86.0576C211.501 86.0576 207.207 88.3762 203.901 93.0206H203.813V86.7524H192.411V129.218H203.813V109.463C203.813 106.215 204.772 103.56 206.688 101.498C208.604 99.4423 211.266 98.411 214.697 98.411C215.918 98.411 216.898 98.4403 217.659 98.4988V86.1381C217.542 86.0795 217.249 86.0503 216.789 86.0503L216.781 86.0576Z" fill="#24FF54"/>
<path d="M58.7684 126.746V64.9573H81.6541C88.8438 64.9573 94.2269 66.8297 97.7962 70.5672C101.365 74.3119 103.15 79.2855 103.15 85.4951C103.15 92.107 101.131 97.1172 97.1013 100.511C93.064 103.905 87.5419 105.601 80.5204 105.601H70.8585V126.746H58.7611H58.7684ZM70.8658 94.7255H78.9625C82.7292 94.7255 85.589 93.8844 87.5346 92.2021C89.4801 90.5199 90.4529 88.2013 90.4529 85.2391C90.4529 82.277 89.4947 80.0462 87.5858 78.3639C85.6695 76.6817 82.9706 75.8406 79.4891 75.8406H70.8731V94.7255H70.8658Z" fill="#24FF54"/>
<path d="M179.736 64.9644H191.782L173.299 126.753H161.984L150.406 82.8107L149.697 82.6863L137.65 126.753H125.743L107.414 64.9644H120.462L132.472 106.735H132.648L143.611 64.9644H156.587L167.587 106.72H167.565L179.728 64.9644H179.736Z" fill="#24FF54"/>
<path d="M221.331 83.5859C221.799 83.5859 222.084 83.6152 222.201 83.6737V96.0344C221.448 95.9759 220.46 95.9467 219.239 95.9467C215.816 95.9467 213.146 96.978 211.23 99.0332C209.314 101.096 208.355 103.751 208.355 106.998V126.753H196.953V84.2881H208.355V90.5562H208.443C211.749 85.9118 216.043 83.5932 221.323 83.5932L221.331 83.5859Z" fill="#24FF54"/>
<path d="M16.4932 119.776V112.747H19.982V125.356L17.4733 125.415L11.1101 119.388C10.1519 118.503 9.34005 117.852 8.65984 117.428C7.98695 117.004 7.29212 116.791 6.57534 116.791C5.82199 116.791 5.2003 117.033 4.70294 117.523C4.20559 118.013 3.95691 118.627 3.95691 119.381C3.95691 120.785 4.65174 121.904 6.04141 122.731L4.07393 125.488C1.63104 124.157 0.416908 122.014 0.416908 119.073C0.416908 117.384 0.943517 115.943 1.99674 114.736C3.04996 113.537 4.43964 112.937 6.16575 112.937C7.31406 112.937 8.38191 113.164 9.34737 113.617C10.3201 114.071 11.4392 114.904 12.6972 116.111L16.4713 119.768H16.4859L16.4932 119.776Z" fill="#F6ECFF"/>
<path d="M20.2087 102.646C20.2087 104.899 19.3311 106.713 17.5757 108.095C15.8203 109.478 13.4067 110.165 10.3274 110.165C7.24823 110.165 4.94431 109.492 3.13774 108.139C1.32385 106.786 0.416908 104.957 0.416908 102.654C0.416908 100.35 1.30191 98.5358 3.06459 97.1607C4.82728 95.793 7.24823 95.1055 10.3274 95.1055C13.4067 95.1055 15.7033 95.7784 17.5098 97.1315C19.3091 98.4846 20.2087 100.32 20.2087 102.646ZM14.9572 105.272C16.0909 104.621 16.6614 103.736 16.6614 102.61C16.6614 101.483 16.1129 100.598 15.0158 99.962C13.9187 99.3257 12.3534 99.0039 10.3274 99.0039C8.30146 99.0039 6.80939 99.3257 5.68302 99.962C4.55666 100.598 3.99348 101.483 3.99348 102.61C3.99348 103.736 4.54203 104.621 5.63914 105.272C6.73625 105.923 8.30146 106.245 10.3274 106.245C12.3534 106.245 13.8236 105.923 14.9572 105.272Z" fill="#F6ECFF"/>
<path d="M16.4932 87.0671V80.0383H19.982V92.6478L17.4733 92.7063L11.1101 86.6795C10.1519 85.7945 9.34005 85.1435 8.65984 84.7193C7.98695 84.2951 7.29212 84.083 6.57534 84.083C5.82199 84.083 5.2003 84.3244 4.70294 84.8144C4.20559 85.3044 3.95691 85.9188 3.95691 86.6722C3.95691 88.0765 4.65174 89.1955 6.04141 90.022L4.07393 92.7794C1.63104 91.4483 0.416908 89.3052 0.416908 86.365C0.416908 84.6754 0.943517 83.2346 1.99674 82.0278C3.04996 80.8282 4.43964 80.2285 6.16575 80.2285C7.31406 80.2285 8.38191 80.4552 9.34737 80.9087C10.3201 81.3622 11.4392 82.196 12.6972 83.4028L16.4713 87.0598H16.4859L16.4932 87.0671Z" fill="#F6ECFF"/>
<path d="M7.5993 69.6526C7.5993 67.9631 8.15517 66.5515 9.25959 65.4178C10.364 64.2841 11.8853 63.7136 13.8236 63.7136C15.7618 63.7136 17.2319 64.3719 18.4241 65.6957C19.6163 67.0196 20.2087 68.6872 20.2087 70.6912C20.2087 72.6953 19.492 74.3629 18.0584 75.6721C16.6248 76.9886 14.7598 77.6396 12.4705 77.6396C9.34004 77.6396 6.6119 76.6961 4.30798 74.809C1.99674 72.922 0.563182 70.4572 0 67.4218L3.0719 66.3247C4.08124 69.9086 5.88781 72.2199 8.47699 73.2511L8.50624 73.2219C7.90649 72.1687 7.60661 70.9765 7.60661 69.6453L7.5993 69.6526ZM16.7711 70.5815C16.7711 69.6819 16.4786 68.9359 15.8861 68.3434C15.2937 67.751 14.5769 67.4584 13.7358 67.4584C12.8947 67.4584 12.1706 67.751 11.622 68.3288C11.0808 68.9139 10.8102 69.6819 10.8102 70.64C10.8102 71.9346 11.3807 73.0537 12.529 73.9899H12.8142C13.9991 73.9899 14.9499 73.6607 15.6886 73.0025C16.42 72.3442 16.7858 71.5397 16.7858 70.5815H16.7711Z" fill="#F6ECFF"/>
<path d="M11.9585 161.964C8.5867 161.964 5.74884 160.91 3.45223 158.789C1.1483 156.675 0 153.764 0 150.071C0 146.589 1.06054 143.708 3.18893 141.418C5.31732 139.129 8.23562 137.981 11.9585 137.981C13.6773 137.981 15.3522 138.354 16.9979 139.107C18.6362 139.86 20.0771 140.979 21.3058 142.479L17.9048 145.383C16.2079 143.4 14.2258 142.413 11.9585 142.413C9.8886 142.413 8.18442 143.115 6.85326 144.512C5.52211 145.909 4.85653 147.767 4.85653 150.078C4.85653 152.258 5.51479 154.05 6.83864 155.461C8.16248 156.873 9.86666 157.575 11.9585 157.575C14.3136 157.575 16.2957 156.58 17.9048 154.598L21.3058 157.538C18.9288 160.493 15.813 161.964 11.9585 161.964Z" fill="#F6ECFF"/>
<path d="M35.8754 162C32.35 162 29.4756 160.874 27.2522 158.614C25.0287 156.354 23.9169 153.487 23.9169 150.005C23.9169 146.524 25.0287 143.62 27.2522 141.367C29.4756 139.107 32.35 137.981 35.8754 137.981C39.4008 137.981 42.2094 139.092 44.4475 141.316C46.6856 143.539 47.7973 146.436 47.7973 150.005C47.7973 153.574 46.6783 156.463 44.4475 158.679C42.2094 160.896 39.3569 162 35.8754 162ZM35.9047 157.67C37.9307 157.67 39.6129 156.946 40.9587 155.491C42.3045 154.035 42.9774 152.207 42.9774 150.005C42.9774 147.803 42.3045 145.975 40.9587 144.519C39.6129 143.064 37.9307 142.34 35.9047 142.34C33.8787 142.34 32.0941 143.079 30.7483 144.556C29.4025 146.033 28.7296 147.847 28.7296 150.005C28.7296 152.163 29.4025 153.977 30.7483 155.454C32.0941 156.931 33.8055 157.67 35.9047 157.67Z" fill="#F6ECFF"/>
<path d="M67.1284 138.281H71.7874V161.737H67.0333L56.7059 146.165H56.6254V161.737H52.0029V138.281H56.6547L67.1211 154.13H67.1357V138.281H67.1284Z" fill="#F6ECFF"/>
<path d="M76.9365 161.737V138.281H92.4935V142.442H81.5224V148.688H90.6723V152.85H81.5224V161.737H76.9292H76.9365Z" fill="#F6ECFF"/>
<path d="M96.3626 161.737V138.281H111.364V142.442H100.927V148.059H109.287V152.155H100.927V157.604H112.059V161.737H96.3626Z" fill="#F6ECFF"/>
<path d="M134.228 161.737H128.742L123.469 153.706H120.784V161.737H116.191V138.281H125.078C127.784 138.281 129.824 138.99 131.192 140.409C132.56 141.828 133.24 143.722 133.24 146.077C133.24 149.734 131.631 152.089 128.42 153.15L134.235 161.737H134.228ZM120.777 142.406V149.61H124.017C125.429 149.61 126.519 149.288 127.286 148.637C128.054 147.986 128.442 147.101 128.442 145.975C128.442 144.849 128.069 144 127.338 143.364C126.599 142.727 125.56 142.406 124.215 142.406H120.777Z" fill="#F6ECFF"/>
<path d="M137.76 161.737V138.281H152.761V142.442H142.324V148.059H150.684V152.155H142.324V157.604H153.456V161.737H137.768H137.76Z" fill="#F6ECFF"/>
<path d="M172.714 138.281H177.373V161.737H172.619L162.292 146.165H162.211V161.737H157.581V138.281H162.233L172.699 154.13H172.714V138.281Z" fill="#F6ECFF"/>
<path d="M193.523 161.964C190.151 161.964 187.32 160.91 185.016 158.789C182.712 156.675 181.564 153.764 181.564 150.071C181.564 146.589 182.625 143.708 184.753 141.418C186.874 139.129 189.8 137.981 193.523 137.981C195.241 137.981 196.916 138.354 198.562 139.107C200.2 139.86 201.641 140.979 202.877 142.479L199.476 145.383C197.779 143.4 195.797 142.413 193.53 142.413C191.46 142.413 189.756 143.115 188.425 144.512C187.093 145.909 186.428 147.767 186.428 150.078C186.428 152.258 187.086 154.05 188.41 155.461C189.734 156.873 191.438 157.575 193.53 157.575C195.885 157.575 197.867 156.58 199.476 154.598L202.877 157.538C200.5 160.493 197.384 161.964 193.53 161.964H193.523Z" fill="#F6ECFF"/>
<path d="M206.505 161.737V138.281H221.506V142.442H211.069V148.059H219.429V152.155H211.069V157.604H222.201V161.737H206.505Z" fill="#F6ECFF"/>
</svg>
