<svg width="170" height="39" viewBox="0 0 170 39" fill="none" xmlns="http://www.w3.org/2000/svg">
<g clip-path="url(#clip0_387_1188)">
<path d="M61.6429 23.8786L61.5735 21.7726L71.384 11.5702H73.3508L66.2011 19.1518L65.2293 20.2048L61.6429 23.8786ZM60.1621 27.9502V11.5702H61.8743V27.9502H60.1621ZM71.8005 27.9502L64.8128 19.807L65.9697 18.5434L73.8367 27.9502H71.8005ZM76.6119 27.9502V11.5702H78.0234L89.199 25.7974H88.4586V11.5702H90.1477V27.9502H88.7362L77.5837 13.723H78.3242V27.9502H76.6119ZM105.955 28.0906C104.752 28.0906 103.595 27.8956 102.485 27.5056C101.39 27.1 100.541 26.5852 99.9395 25.9612L100.611 24.6274C101.181 25.189 101.945 25.6648 102.901 26.0548C103.873 26.4292 104.891 26.6164 105.955 26.6164C106.973 26.6164 107.799 26.4916 108.431 26.242C109.079 25.9768 109.55 25.6258 109.843 25.189C110.151 24.7522 110.305 24.2686 110.305 23.7382C110.305 23.0986 110.12 22.5838 109.75 22.1938C109.395 21.8038 108.925 21.4996 108.339 21.2812C107.752 21.0472 107.105 20.8444 106.395 20.6728C105.685 20.5012 104.976 20.3218 104.266 20.1346C103.557 19.9318 102.901 19.6666 102.3 19.339C101.713 19.0114 101.235 18.5824 100.865 18.052C100.51 17.506 100.333 16.7962 100.333 15.9226C100.333 15.1114 100.541 14.3704 100.958 13.6996C101.39 13.0132 102.045 12.4672 102.924 12.0616C103.804 11.6404 104.93 11.4298 106.302 11.4298C107.213 11.4298 108.115 11.5624 109.01 11.8276C109.904 12.0772 110.676 12.4282 111.323 12.8806L110.745 14.2612C110.051 13.7932 109.31 13.45 108.524 13.2316C107.752 13.0132 107.004 12.904 106.279 12.904C105.308 12.904 104.505 13.0366 103.873 13.3018C103.241 13.567 102.77 13.9258 102.462 14.3782C102.169 14.815 102.022 15.3142 102.022 15.8758C102.022 16.5154 102.199 17.0302 102.554 17.4202C102.924 17.8102 103.403 18.1144 103.989 18.3328C104.59 18.5512 105.246 18.7462 105.955 18.9178C106.665 19.0894 107.367 19.2766 108.061 19.4794C108.771 19.6822 109.418 19.9474 110.005 20.275C110.606 20.587 111.084 21.0082 111.439 21.5386C111.809 22.069 111.994 22.7632 111.994 23.6212C111.994 24.4168 111.778 25.1578 111.347 25.8442C110.915 26.515 110.251 27.061 109.357 27.4822C108.477 27.8878 107.344 28.0906 105.955 28.0906ZM120.329 28.0672C119.157 28.0672 118.1 27.802 117.159 27.2716C116.234 26.7256 115.501 25.9846 114.961 25.0486C114.421 24.097 114.151 23.0128 114.151 21.796C114.151 20.5636 114.421 19.4794 114.961 18.5434C115.501 17.6074 116.234 16.8742 117.159 16.3438C118.085 15.8134 119.142 15.5482 120.329 15.5482C121.532 15.5482 122.597 15.8134 123.522 16.3438C124.463 16.8742 125.196 17.6074 125.72 18.5434C126.26 19.4794 126.53 20.5636 126.53 21.796C126.53 23.0128 126.26 24.097 125.72 25.0486C125.196 25.9846 124.463 26.7256 123.522 27.2716C122.581 27.802 121.517 28.0672 120.329 28.0672ZM120.329 26.593C121.208 26.593 121.987 26.398 122.666 26.008C123.345 25.6024 123.877 25.0408 124.263 24.3232C124.664 23.59 124.864 22.7476 124.864 21.796C124.864 20.8288 124.664 19.9864 124.263 19.2688C123.877 18.5512 123.345 17.9974 122.666 17.6074C121.987 17.2018 121.216 16.999 120.352 16.999C119.489 16.999 118.717 17.2018 118.039 17.6074C117.36 17.9974 116.82 18.5512 116.419 19.2688C116.018 19.9864 115.817 20.8288 115.817 21.796C115.817 22.7476 116.018 23.59 116.419 24.3232C116.82 25.0408 117.36 25.6024 118.039 26.008C118.717 26.398 119.481 26.593 120.329 26.593ZM129.884 27.9502V10.5874H131.527V27.9502H129.884ZM139.222 27.9502L133.831 15.6652H135.543L140.494 27.061H139.685L144.705 15.6652H146.325L140.911 27.9502H139.222ZM148.639 27.9502V15.6652H150.212V19.0114L150.05 18.4264C150.389 17.4904 150.96 16.7806 151.762 16.297C152.564 15.7978 153.559 15.5482 154.747 15.5482V17.1628C154.685 17.1628 154.624 17.1628 154.562 17.1628C154.5 17.1472 154.439 17.1394 154.377 17.1394C153.097 17.1394 152.094 17.5372 151.369 18.3328C150.644 19.1128 150.281 20.2282 150.281 21.679V27.9502H148.639ZM162.583 28.0672C161.411 28.0672 160.354 27.802 159.414 27.2716C158.488 26.7256 157.755 25.9846 157.215 25.0486C156.676 24.097 156.406 23.0128 156.406 21.796C156.406 20.5636 156.676 19.4794 157.215 18.5434C157.755 17.6074 158.488 16.8742 159.414 16.3438C160.339 15.8134 161.396 15.5482 162.583 15.5482C163.787 15.5482 164.851 15.8134 165.776 16.3438C166.717 16.8742 167.45 17.6074 167.975 18.5434C168.514 19.4794 168.784 20.5636 168.784 21.796C168.784 23.0128 168.514 24.097 167.975 25.0486C167.45 25.9846 166.717 26.7256 165.776 27.2716C164.836 27.802 163.771 28.0672 162.583 28.0672ZM162.583 26.593C163.463 26.593 164.242 26.398 164.92 26.008C165.599 25.6024 166.131 25.0408 166.517 24.3232C166.918 23.59 167.118 22.7476 167.118 21.796C167.118 20.8288 166.918 19.9864 166.517 19.2688C166.131 18.5512 165.599 17.9974 164.92 17.6074C164.242 17.2018 163.47 16.999 162.607 16.999C161.743 16.999 160.971 17.2018 160.293 17.6074C159.614 17.9974 159.074 18.5512 158.673 19.2688C158.272 19.9864 158.072 20.8288 158.072 21.796C158.072 22.7476 158.272 23.59 158.673 24.3232C159.074 25.0408 159.614 25.6024 160.293 26.008C160.971 26.398 161.735 26.593 162.583 26.593Z" fill="white"/>
<path d="M8.14236 14.106L8.14062 14.1077L24.4264 30.7059L40.7077 14.1077L40.7061 14.106H36.6347L36.6367 14.1077L24.4264 26.5571L12.2102 14.1077L12.2119 14.106H8.14236Z" fill="white"/>
<path d="M0 14.106L5.08846 19.2931L7.12326 17.218L4.07107 14.106H0ZM44.7833 14.106L34.6064 24.4817L36.6368 26.5523L48.8469 14.106H44.7833ZM9.15805 19.2916L7.12178 21.3652L11.1943 25.5155L13.2276 23.4403L9.15805 19.2916ZM15.2654 25.514L13.2291 27.5891L24.4264 39.0002L30.5338 32.7748L29.2501 31.4651L29.247 31.4679L28.4958 30.7024L24.4262 34.8513L15.2654 25.514ZM32.5654 26.5554L30.5338 28.626L32.5671 30.7011L34.6032 28.6245L33.589 27.5907L33.5861 27.5935L32.5654 26.5554Z" fill="white"/>
<path d="M24.4251 0L21.543 2.93539L23.2984 4.69989L24.4251 3.55251L27.3382 6.51895L25.595 8.29852H29.0817L30.8261 6.51895L24.4251 0ZM19.7998 4.71074L18.0238 6.5195H18.0865L19.8 8.26712H19.7982L21.5431 10.0469H21.5462L24.393 12.9481V12.9464L25.5636 14.1381L27.3064 15.9177L29.0483 17.6493L30.7632 15.8857L27.3068 12.3585H27.303L23.2863 8.26657L19.7998 4.71074ZM19.7678 14.1061L18.0234 15.8857L24.4244 22.405L27.2935 19.4544L25.5635 17.6924L24.4244 18.8521L21.5114 15.8857L23.2546 14.1061H19.7678Z" fill="white"/>
</g>
<defs>
<clipPath id="clip0_387_1188">
<rect width="170" height="39" fill="white"/>
</clipPath>
</defs>
</svg>
